<svg height="300px" width="300px" fill="#000000" xmlns="http://www.w3.org/2000/svg" xmlns:xlink="http://www.w3.org/1999/xlink" version="1.1" x="0px" y="0px" viewBox="0 0 150 150" style="enable-background:new 0 0 150 150;" xml:space="preserve"><g><path d="M77.5,31.5c-23.7,0-43,19.5-43,43.5c0,24,19.3,43.5,43,43.5s43-19.5,43-43.5C120.5,51,101.2,31.5,77.5,31.5z M77.5,102.6   c-15,0-27.2-12.4-27.2-27.6s12.2-27.5,27.2-27.5s27.2,12.4,27.2,27.5S92.6,102.6,77.5,102.6z"/><path d="M77.5,51.5C64.7,51.5,54.3,62,54.3,75c0,13,10.4,23.6,23.2,23.6S100.8,88,100.8,75C100.8,62,90.3,51.5,77.5,51.5z    M89.5,81.5l-10.8,7.9c-0.4,0.3-0.8,0.4-1.2,0.4c-0.4,0-0.8-0.1-1.2-0.4l-10.8-7.8c-3-2.2-4.9-5.5-5.1-9.1c0-0.2,0-0.4,0-0.6   c0-6.4,4.9-11.6,11-11.6h0c2.1,0,4.2,0.7,6,1.9c1.8-1.2,3.8-1.9,6-1.9h0c3,0,5.7,1.2,7.8,3.4c2.1,2.2,3.2,5.1,3.2,8.1   c0,0.2,0,0.4,0,0.6C94.4,75.9,92.6,79.3,89.5,81.5z"/><path d="M135,41.1v67.8c0,1.1-0.9,2-2,2c-1.1,0-2-0.9-2-2V79.2c-1.7-0.4-3.2-1.2-4.4-2.5c-1.7-1.8-2.6-4.1-2.5-6.6l0-0.8   c0.3-8.3,1.2-16.8,2.7-25c0.5-3,3.1-5.2,6.2-5.2C134.1,39.1,135,40,135,41.1z"/><path d="M29,39.1c-1.1,0-2,0.9-2,2v13.2c0,1.5-0.8,2.8-2,3.5V41.1c0-1.1-0.9-2-2-2s-2,0.9-2,2v16.7c-1.2-0.7-2-2-2-3.5V41.1   c0-1.1-0.9-2-2-2s-2,0.9-2,2v13.2c0,3.7,2.6,6.9,6,7.8v46.8c0,1.1,0.9,2,2,2s2-0.9,2-2V62.1c3.4-0.9,6-4,6-7.8V41.1   C31,40,30.1,39.1,29,39.1z"/></g></svg>